<svg
   viewBox="0 0 528.51611 528.51611"
   xmlns="http://www.w3.org/2000/svg">
    <path
       style="stroke-width:1.03226"
       d="M 44.662924,527.48987 C 30.180916,524.42547 19.887683,513.03671 14.735326,494.37702 13.00671,488.1167 12.903225,475.08949 12.903225,263.74193 12.903225,55.544226 13.027798,39.2921 14.669067,33.365466 17.524686,23.0538 20.667921,17.42708 27.304276,10.74711 34.808181,3.1938865 41.074584,0.67059261 52.122509,0.75354472 60.610318,0.8172745 68.132289,2.83091 77.419352,7.5255235 83.5126,10.605663 371.45325,207.95972 385.20688,218.4826 c 8.65234,6.6199 14.91379,14.25685 19.65136,23.96834 3.75926,7.70609 4.27052,9.6671 4.70958,18.06452 0.96002,18.36087 -3.4214,29.29093 -17.22625,42.97337 -7.70908,7.64072 -27.92944,21.89672 -155.92977,109.93548 -80.88963,55.63598 -149.40575,102.65918 -152.258053,104.49602 -12.19873,7.85577 -28.696622,11.8536 -39.490823,9.56954 z m 425.369316,0.0138 c -6.47554,-1.37567 -11.85043,-4.49926 -16.5902,-9.6413 -8.15098,-8.84274 -7.50657,12.98536 -7.50657,-254.26911 0,-237.945157 0.007,-238.76047 2.11042,-244.382256 2.49974,-6.681135 8.81937,-13.4483051 15.43796,-16.5312121 3.96652,-1.84757986 6.60571,-2.16369289 18.06452,-2.16369289 12.05173,0 13.89276,0.24588651 18.06452,2.41267789 6.49568,3.3738305 10.81749,7.8139691 13.6088,13.9813771 l 2.39119,5.283364 v 242.064512 242.0645 l -2.17358,4.69761 c -3.02804,6.54429 -7.61305,11.44326 -13.42777,14.34728 -4.06108,2.02821 -6.82261,2.52584 -15.32147,2.76093 -5.70212,0.15773 -12.29814,-0.12336 -14.65782,-0.62465 z"
       id="path170" />
</svg>
