<svg
   viewBox="0 0 512 512"
   xmlns="http://www.w3.org/2000/svg">
    <path
       d="m 132.77266,478.44502 c -8.25406,-2.00086 -14.7474,-5.60135 -21.68437,-12.02377 -6.87327,-6.36343 -12.42624,-16.33775 -14.0895,-25.30774 -1.368708,-7.38146 -1.368708,-362.845557 0,-370.22702 1.66326,-8.969987 7.21623,-18.944314 14.0895,-25.307744 11.10165,-10.278174 20.84691,-13.539953 40.52522,-13.563965 6.66243,-0.0081 14.53548,0.444536 17.49567,1.005924 18.3991,3.489318 34.50149,19.580557 37.89203,37.865785 0.64178,3.461124 0.99351,69.76689 0.98401,185.5 -0.0161,195.64447 0.24147,186.31243 -5.45149,197.54694 -1.3643,2.69232 -5.01491,7.63254 -8.11248,10.97828 -6.36343,6.87327 -16.33775,12.42624 -25.30774,14.0895 -7.67798,1.42369 -29.55453,1.08887 -36.34085,-0.55619 z m 208,0 c -8.25406,-2.00086 -14.7474,-5.60135 -21.68437,-12.02377 -6.87327,-6.36343 -12.42624,-16.33775 -14.0895,-25.30774 -1.36871,-7.38146 -1.36871,-362.845557 0,-370.22702 1.66326,-8.969987 7.21623,-18.944314 14.0895,-25.307744 11.10165,-10.278174 20.84691,-13.539953 40.52522,-13.563965 6.66243,-0.0081 14.53548,0.444536 17.49567,1.005924 18.3991,3.489318 34.50149,19.580557 37.89203,37.865785 0.64178,3.461124 0.99351,69.76689 0.98401,185.5 -0.0161,195.64447 0.24147,186.31243 -5.45149,197.54694 -1.3643,2.69232 -5.01491,7.63254 -8.11248,10.97828 -6.36343,6.87327 -16.33775,12.42624 -25.30774,14.0895 -7.67798,1.42369 -29.55453,1.08887 -36.34085,-0.55619 z"
       id="path170" />
</svg>
