<svg
   viewBox="0 0 174.91815 174.91815"
   xmlns="http://www.w3.org/2000/svg">
    <path
       style="stroke-width:0.341637"
       d="m 21.196972,174.54496 c -5.756727,-1.12847 -10.1729,-6.14301 -11.8565905,-13.46311 -0.5996249,-2.60696 -0.6286377,-6.0048 -0.6286377,-73.622775 0,-67.617978 0.029013,-71.015818 0.6286377,-73.622776 C 11.349548,5.1011465 16.997156,0 24.658898,0 c 2.491713,0 6.590718,1.071316 9.675622,2.5288204 3.839176,1.8138705 119.33598,68.0040226 122.7572,70.3510146 1.37552,0.943629 3.39058,2.686555 4.4779,3.87317 7.42749,8.105799 5.61075,18.364379 -4.4779,25.285305 -3.42122,2.347 -118.918024,68.53715 -122.7572,70.35102 -4.653201,2.19847 -9.152719,2.93676 -13.137548,2.15563 z"
       id="path170" />
</svg>
