<svg
   viewBox="0 0 528.51611 528.51611"
   xmlns="http://www.w3.org/2000/svg">
    <path
       style="stroke-width:1.03226"
       d="m 483.85308,527.48987 c 14.482,-3.0644 24.77523,-14.45316 29.92759,-33.11285 1.72861,-6.26032 1.8321,-19.28753 1.8321,-230.63509 0,-208.197704 -0.12458,-224.44983 -1.76584,-230.376464 C 510.99131,23.0538 507.84807,17.42708 501.21172,10.74711 493.70782,3.1938865 487.44141,0.67059261 476.39349,0.75354472 467.90569,0.8172745 460.38372,2.83091 451.09666,7.5255235 445.00341,10.605663 157.06282,207.95972 143.3092,218.4826 c -8.65234,6.6199 -14.91379,14.25685 -19.65135,23.96834 -3.75927,7.70609 -4.27053,9.6671 -4.70959,18.06452 -0.96002,18.36087 3.4214,29.29093 17.22625,42.97337 7.70908,7.64072 27.92944,21.89672 155.92973,109.93548 80.88961,55.63598 149.40572,102.65918 152.25802,104.49602 12.19873,7.85577 28.69662,11.8536 39.49082,9.56954 z m -425.369224,0.0138 c 6.475539,-1.37567 11.850433,-4.49926 16.590199,-9.6413 8.150976,-8.84274 7.506568,12.98536 7.506568,-254.26911 0,-237.945157 -0.007,-238.76047 -2.11042,-244.382256 C 77.970467,12.529899 71.65083,5.7627289 65.032241,2.6798219 61.065728,0.83224204 58.426534,0.51612901 46.96773,0.51612901 c -12.051724,0 -13.892755,0.24588651 -18.064512,2.41267789 C 22.40754,6.3026374 18.085724,10.742776 15.294417,16.910184 l -2.391195,5.283364 v 242.064512 242.0645 l 2.173584,4.69761 c 3.028036,6.54429 7.613046,11.44326 13.427765,14.34728 4.061077,2.02821 6.822615,2.52584 15.321472,2.76093 5.702119,0.15773 12.298133,-0.12336 14.657813,-0.62465 z"
       id="path170" />
</svg>
